PathFileType	4	(x/y/z)	S08_M20_T09
DataRate	CameraRate	NumFrames	NumMarkers	Units	OrigDataRate	OrigDataStartFrame	OrigNumFrames
240	240	4	51	mm	240	383	510
Frame#	Time	Sternum			R.Acromium			L.Acromium			Top.Head			R.ASIS			L.ASIS			R.PSIS			L.PSIS			R.Great.Tro			L.Great.Tro			R.Iliac.Crest			L.Iliac.Crest			V.Sacral			R.Thigh.Upper.Post			R.Thigh.Lower.Ant			R.Thigh.Lower.Post			R.Thigh.Upper.Ant			R.Knee.Lat			R.Knee.Med			R.Shank.Upper.Post			R.Shank.Lower.Ant			R.Shank.Lower.Post			R.Shank.Upper.Ant			R.Ankle.Lat			R.Ankle.Med			R.Heel.Upper			R.Heel.Med			R.Heel.Lat			R.Toe.Lat			R.Toe.Med			R.Toe.Tip			L.Thigh.Upper.Post			L.Thigh.Lower.Ant			L.Thigh.Lower.Post			L.Thigh.Upper.Ant			L.Knee.Lat			L.Knee.Med			L.Shank.Upper.Post			L.Shank.Lower.Ant			L.Shank.Lower.Post			L.Shank.Upper.Ant			L.Ankle.Lat			L.Ankle.Med			L.Heel.Upper			L.Heel.Med			L.Heel.Lat			L.Toe.Lat			L.Toe.Med			L.Toe.Tip			Cervical.Spine			Back			
		X1	Y1	Z1	X2	Y2	Z2	X3	Y3	Z3	X4	Y4	Z4	X5	Y5	Z5	X6	Y6	Z6	X7	Y7	Z7	X8	Y8	Z8	X9	Y9	Z9	X10	Y10	Z10	X11	Y11	Z11	X12	Y12	Z12	X13	Y13	Z13	X14	Y14	Z14	X15	Y15	Z15	X16	Y16	Z16	X17	Y17	Z17	X18	Y18	Z18	X19	Y19	Z19	X20	Y20	Z20	X21	Y21	Z21	X22	Y22	Z22	X23	Y23	Z23	X24	Y24	Z24	X25	Y25	Z25	X26	Y26	Z26	X27	Y27	Z27	X28	Y28	Z28	X29	Y29	Z29	X30	Y30	Z30	X31	Y31	Z31	X32	Y32	Z32	X33	Y33	Z33	X34	Y34	Z34	X35	Y35	Z35	X36	Y36	Z36	X37	Y37	Z37	X38	Y38	Z38	X39	Y39	Z39	X40	Y40	Z40	X41	Y41	Z41	X42	Y42	Z42	X43	Y43	Z43	X44	Y44	Z44	X45	Y45	Z45	X46	Y46	Z46	X47	Y47	Z47	X48	Y48	Z48	X49	Y49	Z49	X50	Y50	Z50	X51	Y51	Z51	

383	1.5917	448.28	1234.8	314.53	326.24	1462.5	489.94	312.45	1492.9	153.55	340.39	1787.3	337.71	430.35	1013.3	423.93	448.28	1024.4	193.25	236.19	1040.5	337.56	246.17	1050.1	244.74	358.23	896.87	486.42	366.47	919.98	117.11	331.38	1078.3	466.62	352.41	1104.6	158.01	224.03	1004.8	285.96	379.21	695.5	480.37	476.24	611.96	464.22	404.23	608.58	466.24	457.51	704.87	479.17	452.28	513.8	460.51	443.44	510.63	328.93	292.33	422.84	468.46	291.44	333.34	452.58	236.52	368.99	465.8	347.04	388.45	459.69	117.45	252.97	435.88	152.31	234.71	360.69	62.219	257.14	383.39	52.254	228.72	357.67	45.055	240.81	418.26	NaN	NaN	NaN	179.86	95.741	367.37	235.01	69.138	419.2	366.55	702.84	142.99	458.09	623.42	177.41	390.49	617.82	166.62	439.3	706.21	148.34	412.88	519.46	193.62	405.33	525.31	317.6	347.65	339.87	197.16	409.97	251.43	227.61	340.68	268.23	216.33	410.77	325.73	207.77	350.07	98.617	241.08	373.43	106.05	327.65	297.2	76.547	293.38	310.68	42.263	323.99	303.64	48.698	260.07	479.41	39.995	224.81	500.12	40.909	340.68	563.12	58.018	290.34	252.21	1521.6	317.82	212.52	1235.3	321.57
384	1.5958	452.71	1235.1	314.3	330.76	1463	489.76	317.27	1493.4	153.4	345.41	1787.7	337.64	435.05	1014	423.55	452.57	1024.6	192.83	240.69	1040.8	337.47	250.54	1050.4	244.63	363.53	897.6	486.32	370.43	920.12	117.04	335.95	1078.8	466.36	356.67	1104.9	157.7	228.52	1005.2	285.91	386.84	696.44	480.76	484.64	613.89	463.97	412.63	609.75	466.55	465.07	706.58	478.95	461.54	515.36	460.3	452.1	512.17	328.87	302.62	422.26	468.59	303	332.73	452.59	247.63	367.59	465.95	357.83	388.64	459.68	130.17	249.78	436.12	165.18	232.11	360.85	74.471	252.66	383.69	65.114	223.89	358.15	57.85	236.01	418.71	NaN	NaN	NaN	195.69	93.895	367.88	251.62	68.676	419.69	369.21	703.21	142.94	460.26	623.17	177.23	392.69	618.02	166.46	441.98	706.09	148.24	414.42	519.43	193.51	407.2	525.32	317.45	348.47	340.07	197.12	410.55	251.42	227.59	341.3	268.45	216.33	411.57	325.71	207.72	350.24	98.735	241.2	373.51	106.1	327.68	297.25	76.643	293.42	310.67	42.334	323.97	303.68	48.795	260.1	479.46	39.956	224.83	500.19	40.733	340.7	563.22	57.717	290.36	256.89	1522.1	317.58	216.99	1235.8	321.16
385	1.6	457.14	1235.5	314.07	335.27	1463.4	489.59	322.09	1493.9	153.26	350.43	1788	337.57	439.74	1014.5	423.16	456.84	1024.9	192.42	245.18	1041.1	337.41	254.89	1050.6	244.54	368.84	898.3	486.24	374.38	920.23	116.99	340.54	1079.3	466.11	360.91	1105.2	157.4	233	1005.4	285.88	394.41	697.37	481.14	492.98	615.81	463.7	420.99	610.92	466.86	472.59	708.28	478.71	470.71	516.92	460.07	460.62	513.7	328.8	312.9	421.6	468.72	314.58	332.07	452.59	258.76	366.1	466.1	368.6	388.77	459.65	143	246.44	436.38	178.14	229.41	361	86.862	248.04	384.01	78.128	218.94	358.65	70.8	231.05	419.18	NaN	NaN	NaN	211.64	92.027	368.3	268.33	68.19	420.06	371.86	703.57	142.9	462.43	622.92	177.05	394.88	618.22	166.3	444.65	705.96	148.15	415.94	519.41	193.41	409.08	525.32	317.31	349.28	340.27	197.08	411.13	251.4	227.57	341.92	268.67	216.33	412.35	325.7	207.66	350.42	98.853	241.31	373.57	106.14	327.7	297.31	76.737	293.45	310.65	42.407	323.94	303.73	48.892	260.13	479.5	39.918	224.84	500.26	40.565	340.71	563.32	57.423	290.37	261.57	1522.6	317.34	221.46	1236.3	320.75
386	1.6042	461.56	1235.8	313.84	339.79	1463.8	489.42	326.91	1494.4	153.13	355.44	1788.3	337.49	444.43	1015.1	422.79	461.1	1025	192	249.65	1041.4	337.38	259.23	1050.8	244.48	374.15	898.98	486.17	378.32	920.32	116.97	345.13	1079.8	465.87	365.13	1105.4	157.12	237.47	1005.7	285.87	401.94	698.31	481.52	501.24	617.72	463.4	429.29	612.11	467.16	480.07	709.95	478.45	479.79	518.48	459.82	469	515.22	328.72	323.16	420.87	468.85	326.19	331.36	452.59	269.92	364.52	466.25	379.36	388.87	459.61	155.94	242.96	436.67	191.2	226.62	361.16	99.397	243.29	384.37	91.299	213.89	359.17	83.906	225.95	419.67	NaN	NaN	NaN	227.72	90.142	368.66	285.13	67.686	420.34	374.51	703.93	142.87	464.59	622.68	176.88	397.07	618.42	166.15	447.3	705.84	148.06	417.46	519.39	193.31	410.97	525.33	317.19	350.08	340.47	197.05	411.7	251.4	227.54	342.53	268.89	216.33	413.13	325.69	207.6	350.59	98.973	241.43	373.63	106.19	327.71	297.36	76.83	293.48	310.62	42.483	323.92	303.78	48.988	260.15	479.54	39.88	224.85	500.32	40.408	340.72	563.43	57.137	290.39	266.24	1523	317.11	225.91	1236.8	320.35
